Coordinates
version=1
nRows=18
nColumns=22
inDegrees=yes

Units are S.I. units (second, meters, Newtons, ...)
If the header above contains a line with 'inDegrees', this indicates whether rotational values are in degrees (yes) or radians (no).

endheader
time	pelvis_tilt	pelvis_list	pelvis_rotation	pelvis_tx	pelvis_ty	pelvis_tz	hip_flexion_r	hip_adduction_r	hip_rotation_r	knee_angle_r	ankle_angle_r	subtalar_angle_r	hip_flexion_l	hip_adduction_l	hip_rotation_l	knee_angle_l	ankle_angle_l	subtalar_angle_l	lumbar_extension	lumbar_bending	lumbar_rotation
      1.24000000	      0.21006916	      1.57723332	    -29.02334918	     -0.92200949	      0.89861426	     -0.41076696	     19.40795597	     -3.10897812	      1.98480376	    -46.49464345	     17.97388522	    -10.22801956	      0.03253518	      4.26938387	    -12.54520843	    -16.26726449	     19.13758674	     -4.35001439	    -10.41747844	     -2.34359678	      2.98685267
      1.25000000	      0.09138726	      1.47971177	    -28.78745583	     -0.91968649	      0.89867093	     -0.41099082	     20.27542632	     -3.00017625	      1.69108153	    -47.29135267	     18.07722313	    -10.79374406	     -0.17679106	      4.18782328	    -12.40576788	    -16.01332660	     19.13199809	     -4.21306231	    -10.54088969	     -2.07527264	      2.60451085
      1.26000000	      0.02030104	      1.34401696	    -28.56056660	     -0.91726471	      0.89881432	     -0.41112011	     21.00918522	     -2.90565837	      1.34333836	    -47.83095108	     18.17522629	    -11.29218275	     -0.46660561	      4.09247755	    -12.28478019	    -15.74923597	     19.17108074	     -4.10632256	    -10.73180256	     -1.79527267	      2.27445954
      1.27000000	     -0.05525940	      1.21168282	    -28.35475190	     -0.91476313	      0.89892709	     -0.41111771	     21.69071038	     -2.82735200	      0.96226469	    -48.13140891	     18.31533050	    -11.94528244	     -0.76247053	      3.99390794	    -12.19093502	    -15.48147693	     19.21206233	     -3.99648154	    -10.90886082	     -1.52484585	      2.00794792
      1.28000000	     -0.14651065	      1.09211826	    -28.10715209	     -0.91212208	      0.89898364	     -0.41110377	     22.32420514	     -2.79945056	      0.49138467	    -48.19920099	     18.45044001	    -12.15994902	     -1.04047337	      3.90515278	    -11.99518155	    -15.21886148	     19.25363687	     -3.94073491	    -11.05423915	     -1.24964386	      1.71627888
      1.29000000	     -0.21127751	      0.95374178	    -27.87807952	     -0.90939697	      0.89905885	     -0.41092593	     22.85374160	     -2.77128523	      0.00410543	    -48.03140488	     18.60869631	    -12.86237001	     -1.35305931	      3.79881164	    -11.86198019	    -14.97975453	     19.27574834	     -3.84295635	    -11.23139588	     -0.97952817	      1.42969088
      1.30000000	     -0.30271876	      0.83503913	    -27.63534297	     -0.90657165	      0.89902979	     -0.41067096	     23.36280889	     -2.76385518	     -0.50885773	    -47.66881758	     18.71491730	    -13.12011278	     -1.62873043	      3.69788763	    -11.67013037	    -14.75730517	     19.32186151	     -3.78863156	    -11.36292385	     -0.71572944	      1.14142481
      1.31000000	     -0.35011802	      0.68664154	    -27.42877884	     -0.90364310	      0.89902897	     -0.41022113	     23.75193865	     -2.74302975	     -1.02053932	    -47.10421184	     18.83611865	    -13.67823362	     -1.97842115	      3.58593129	    -11.51038393	    -14.53085694	     19.36886097	     -3.70039441	    -11.54927647	     -0.45918257	      0.94058017
      1.32000000	     -0.44770915	      0.56654654	    -27.21979687	     -0.90064772	      0.89887170	     -0.40964815	     24.15939073	     -2.72696735	     -1.55211660	    -46.38139552	     18.88339076	    -13.82889161	     -2.24114807	      3.46697400	    -11.32180004	    -14.36574613	     19.43537483	     -3.65757237	    -11.66322423	     -0.21593068	      0.74491429
      1.33000000	     -0.46252747	      0.41432434	    -27.02919357	     -0.89750624	      0.89877813	     -0.40890273	     24.41354018	     -2.71993168	     -2.10218253	    -45.49731360	     18.92074925	    -14.14303729	     -2.62159738	      3.35168906	    -11.18770712	    -14.18627306	     19.53502607	     -3.57690007	    -11.87462321	      0.01280658	      0.56507231
      1.34000000	     -0.54158417	      0.28688554	    -26.85766974	     -0.89432179	      0.89851024	     -0.40798331	     24.70307044	     -2.67515438	     -2.61680613	    -44.47864973	     18.91425858	    -14.23760310	     -2.90807465	      3.21826789	    -11.05522232	    -14.05869152	     19.65257000	     -3.52870906	    -12.00189345	      0.23547781	      0.40094564
      1.35000000	     -0.60260088	      0.15489191	    -26.71411333	     -0.89104020	      0.89819706	     -0.40688998	     24.93106939	     -2.61461078	     -3.11933834	    -43.33549971	     18.89341222	    -14.25272928	     -3.22192493	      3.08505124	    -10.94817249	    -13.93746398	     19.78837778	     -3.47464020	    -12.14789554	      0.44354457	      0.29762280
      1.36000000	     -0.64918838	      0.02099798	    -26.59764850	     -0.88767147	      0.89782742	     -0.40560752	     25.10990670	     -2.53681866	     -3.61525369	    -42.09146239	     18.85108770	    -14.13275030	     -3.55753806	      2.95042158	    -10.86335410	    -13.82511300	     19.94213568	     -3.40251713	    -12.30610218	      0.62861413	      0.24141866
      1.37000000	     -0.72805511	     -0.10149030	    -26.49396782	     -0.88423793	      0.89733284	     -0.40418460	     25.29364242	     -2.42386078	     -4.07990814	    -40.75653975	     18.76406657	    -13.91345414	     -3.84341855	      2.80006883	    -10.82218922	    -13.75171363	     20.12861039	     -3.34118769	    -12.42434845	      0.81509911	      0.17965816
      1.38000000	     -0.77034813	     -0.22477601	    -26.41794266	     -0.88070671	      0.89681128	     -0.40259068	     25.41512687	     -2.30655088	     -4.53792275	    -39.35592318	     18.66873899	    -13.42686679	     -4.18516543	      2.66633149	    -10.77317362	    -13.66353419	     20.31169464	     -3.23045126	    -12.57955061	      0.96763711	      0.19112917
      1.39000000	     -0.84368667	     -0.33475902	    -26.35458760	     -0.87711255	      0.89616159	     -0.40086552	     25.55055856	     -2.15656572	     -4.95446316	    -37.90011691	     18.53737900	    -12.89906749	     -4.47350836	      2.51837491	    -10.76398163	    -13.62461429	     20.52435786	     -3.12391006	    -12.69471275	      1.11700903	      0.20044102
      1.40000000	     -0.92107160	     -0.43760588	    -26.30793506	     -0.87343150	      0.89542974	     -0.39900620	     25.67362691	     -1.98716903	     -5.34223925	    -36.40769681	     18.38397447	    -12.31531402	     -4.75328583	      2.36932401	    -10.77684776	    -13.60814634	     20.74106932	     -2.99967836	    -12.80033783	      1.25540159	      0.23153984
      1.41000000	     -0.99585566	     -0.54123668	    -26.27338441	     -0.86964625	      0.89463112	     -0.39701510	     25.77711322	     -1.80458561	     -5.72759756	    -34.89740677	     18.21514581	    -11.69159279	     -5.03404036	      2.21327590	    -10.80595907	    -13.61840241	     20.97338659	     -2.85000534	    -12.90454021	      1.38947153	      0.28635625
